*
G04 Mass Parameters ***
*
G04 Image ***
*
%IND:\SOURCE BOOK\DESIGN\POWERAMP\CLASS-AB\CLASS-AB.SPT*%
%ICAS*%
%MOIN*%
%IPPOS*%
%ASAXBY*%
G74*%FSLAN2X34Y34*%
*
G04 Aperture Definitions ***
*
%ADD10R,0.0600X0.0600*%
%ADD11C,0.0520*%
%ADD12R,0.0520X0.0520*%
%ADD13C,0.0550*%
%ADD14R,0.0610X0.0610*%
%ADD15C,0.0610*%
%ADD16C,0.1300*%
%ADD17R,0.1300X0.1300*%
%ADD18C,0.1470*%
%ADD19C,0.0750*%
%ADD20R,0.0750X0.0750*%
%ADD21C,0.1000*%
%ADD22C,0.0600*%
%ADD23C,0.0450*%
%ADD24C,0.0300*%
%ADD25C,0.0800*%
%ADD26R,0.0550X0.0550*%
%ADD27C,0.1250*%
%ADD28R,0.1250X0.1250*%
%ADD29C,0.0580*%
%ADD30R,0.0580X0.0580*%
%ADD31R,0.1000X0.1000*%
%ADD32C,0.0620*%
%ADD33R,0.0620X0.0620*%
%ADD34C,0.0197*%
%ADD35C,0.0098*%
%ADD36C,0.0079*%
%ADD37C,0.0000*%
%ADD38C,0.0787*%
%ADD39C,0.0394*%
%ADD40C,0.1181*%
%ADD41C,0.0984*%
%ADD42C,0.0002*%
%ADD43C,0.0720*%
%ADD44R,0.0720X0.0720*%
%ADD45R,0.0810X0.0810*%
%ADD46C,0.0810*%
%ADD47C,0.1360*%
%ADD48C,0.1750*%
%ADD49C,0.0950*%
%ADD50R,0.0950X0.0950*%
%ADD51C,0.1060*%
%ADD52R,0.0800X0.0800*%
%ADD53C,0.0650*%
%ADD54C,0.0860*%
%ADD55C,0.1310*%
%ADD56C,0.0780*%
%ADD57R,0.0780X0.0780*%
%ADD58C,0.1200*%
%ADD59R,0.1200X0.1200*%
%ADD60C,0.0820*%
%ADD61R,0.0820X0.0820*%
%ADD62C,0.1350*%
%ADD63C,0.1050*%
%ADD64C,0.0350*%
%ADD65C,0.0850*%
%ADD66C,0.0059*%
%ADD67C,0.0080*%
%ADD68C,0.0100*%
%ADD69C,0.0039*%
%ADD70C,0.0060*%
%ADD71C,0.0260*%
%ADD72C,0.0300*%
%ADD73C,0.0600*%
%ADD74C,0.0350*%
%ADD75C,0.0260*%
*
G04 Plot Data ***
*
G54D10*
X0073661Y0064459D03*
X0074941D03*
X0073671Y0065453D03*
X0074951D03*
X0060679Y0066339D03*
X0059400D03*
X0055167Y0056988D03*
X0056447D03*
X0060974Y0058809D03*
Y0057530D03*
Y0062598D03*
Y0061319D03*
X0071211Y0055856D03*
Y0054577D03*
X0073524Y0051378D03*
X0072244D03*
X0070226Y0051329D03*
X0068947D03*
X0068376Y0063445D03*
X0067097D03*
X0071703Y0061693D03*
Y0062972D03*
X0070719D03*
Y0061693D03*
X0064222Y0068701D03*
X0062943D03*
X0073661Y0063465D03*
X0074941D03*
X0079478Y0069390D03*
Y0068110D03*
X0077756Y0069390D03*
Y0068110D03*
X0074173D03*
Y0069390D03*
X0073189D03*
Y0068110D03*
X0072195Y0069390D03*
Y0068110D03*
X0071211D03*
Y0069390D03*
X0070226Y0068110D03*
Y0069390D03*
X0078199Y0062205D03*
X0079478D03*
X0078199Y0066732D03*
X0079478D03*
X0064222D03*
X0062943D03*
X0064222Y0064715D03*
X0062943D03*
X0064222Y0062205D03*
X0062943D03*
X0068848Y0067372D03*
Y0066093D03*
X0070571Y0065453D03*
X0071850D03*
X0048671Y0056988D03*
X0049951D03*
X0034055Y0055709D03*
Y0054429D03*
X0040502Y0069390D03*
Y0068110D03*
X0027067Y0064724D03*
X0025788D03*
X0027067Y0066732D03*
X0025787D03*
X0027067Y0062205D03*
X0025788D03*
X0033583Y0062953D03*
Y0061673D03*
X0034055Y0068110D03*
Y0069390D03*
X0033061Y0051181D03*
X0031782D03*
X0036024Y0069390D03*
Y0068110D03*
X0037785Y0064459D03*
X0036506D03*
X0037785Y0065443D03*
X0036506D03*
X0035059Y0051181D03*
X0036338D03*
X0037008Y0068110D03*
Y0069390D03*
X0031693Y0067392D03*
Y0066112D03*
X0042323Y0062205D03*
X0041044D03*
X0042323Y0066732D03*
X0041044D03*
X0042323Y0069390D03*
Y0068110D03*
X0027067Y0068701D03*
X0025788D03*
X0034567Y0061673D03*
Y0062953D03*
X0035039Y0069390D03*
Y0068110D03*
X0044144Y0058809D03*
Y0057530D03*
X0031220Y0063465D03*
X0029941D03*
X0033415Y0065463D03*
X0034695D03*
X0036506Y0063474D03*
X0037785D03*
X0044144Y0062598D03*
Y0061319D03*
X0033071Y0068110D03*
Y0069390D03*
X0045669Y0066339D03*
X0044390D03*
M02*
