*
G04 Mass Parameters ***
*
G04 Image ***
*
%IND:\SOURCE BOOK\DESIGN\POWERAMP\CLASS-AB\CLASS-AB.PWR*%
%ICAS*%
%MOIN*%
%IPPOS*%
%ASAXBY*%
G74*%FSLAN2X34Y34*%
*
G04 Aperture Definitions ***
*
%ADD10R,0.0600X0.0600*%
%ADD11C,0.0520*%
%ADD12R,0.0520X0.0520*%
%ADD13C,0.0550*%
%ADD14R,0.0610X0.0610*%
%ADD15C,0.0610*%
%ADD16C,0.1300*%
%ADD17R,0.1300X0.1300*%
%ADD18C,0.1470*%
%ADD19C,0.0750*%
%ADD20R,0.0750X0.0750*%
%ADD21C,0.1000*%
%ADD22C,0.0600*%
%ADD23C,0.0450*%
%ADD24C,0.0300*%
%ADD25C,0.0800*%
%ADD26R,0.0550X0.0550*%
%ADD27C,0.1250*%
%ADD28R,0.1250X0.1250*%
%ADD29C,0.0580*%
%ADD30R,0.0580X0.0580*%
%ADD31R,0.1000X0.1000*%
%ADD32C,0.0620*%
%ADD33R,0.0620X0.0620*%
%ADD34C,0.0197*%
%ADD35C,0.0098*%
%ADD36C,0.0079*%
%ADD37C,0.0000*%
%ADD38C,0.0787*%
%ADD39C,0.0394*%
%ADD40C,0.1181*%
%ADD41C,0.0984*%
%ADD42C,0.0002*%
%ADD43C,0.0720*%
%ADD44R,0.0720X0.0720*%
%ADD45R,0.0810X0.0810*%
%ADD46C,0.0810*%
%ADD47C,0.1360*%
%ADD48C,0.1750*%
%ADD49C,0.0950*%
%ADD50R,0.0950X0.0950*%
%ADD51C,0.1060*%
%ADD52R,0.0800X0.0800*%
%ADD53C,0.0650*%
%ADD54C,0.0860*%
%ADD55C,0.1310*%
%ADD56C,0.0780*%
%ADD57R,0.0780X0.0780*%
%ADD58C,0.1200*%
%ADD59R,0.1200X0.1200*%
%ADD60C,0.0820*%
%ADD61R,0.0820X0.0820*%
%ADD62C,0.1350*%
%ADD63C,0.1050*%
%ADD64C,0.0350*%
%ADD65C,0.0850*%
%ADD66C,0.0059*%
%ADD67C,0.0080*%
%ADD68C,0.0100*%
%ADD69C,0.0039*%
%ADD70C,0.0060*%
%ADD71C,0.0260*%
%ADD72C,0.0300*%
%ADD73C,0.0600*%
%ADD74C,0.0350*%
%ADD75C,0.0260*%
*
G04 Plot Data ***
*
G54D34*
G01X0022136Y0044035D02*
Y0070974D01*
X0082815D01*
X0083199Y0070984D01*
X0083553Y0070974D01*
Y0044035D01*
X0022136D01*
G54D19*
X0071998Y0056496D03*
Y0053937D03*
X0070423Y0056496D03*
Y0053937D03*
X0071998Y0060482D03*
Y0057923D03*
X0070423Y0060482D03*
Y0057923D03*
X0077982Y0060433D03*
X0075423D03*
X0066959Y0060482D03*
X0064400D03*
X0069685Y0062205D03*
X0072685D03*
X0056398Y0066339D03*
Y0060434D03*
X0051083Y0066339D03*
X0029823Y0060433D03*
X0027264D03*
X0033268Y0056496D03*
Y0053937D03*
Y0060433D03*
Y0057874D03*
X0048720Y0066339D03*
Y0060434D03*
X0034843Y0057874D03*
Y0060433D03*
X0034842Y0056496D03*
Y0053937D03*
X0040846Y0060433D03*
X0038288D03*
X0032579Y0062205D03*
X0035579D03*
G54D20*
X0054035Y0066339D03*
G54D22*
X0068868Y0060482D03*
X0031693Y0069390D03*
Y0060433D03*
G54D25*
X0071244Y0050362D03*
X0070244Y0052362D03*
X0078919Y0064455D03*
X0076919Y0065455D03*
X0034059Y0050264D03*
X0033059Y0052264D03*
X0041724Y0064455D03*
X0039724Y0065455D03*
G54D43*
X0080069Y0053346D03*
Y0057283D03*
X0078888Y0053346D03*
Y0057283D03*
X0063533Y0053346D03*
Y0057283D03*
X0062352Y0053346D03*
Y0057283D03*
X0066994Y0068701D03*
X0056398Y0055807D03*
Y0058807D03*
X0053543Y0052264D03*
Y0048327D03*
X0051575Y0052264D03*
Y0048327D03*
X0025197Y0053396D03*
Y0057332D03*
X0026378Y0057333D03*
Y0053396D03*
X0042913Y0057333D03*
Y0053396D03*
X0041732D03*
Y0057332D03*
X0048720Y0055807D03*
Y0058807D03*
X0029839Y0068701D03*
G54D44*
X0065994D03*
X0028839D03*
G54D45*
X0059793Y0057825D03*
Y0056841D03*
Y0061614D03*
Y0060630D03*
X0075935Y0062205D03*
X0076919D03*
X0066486D03*
X0065502D03*
X0075935Y0066732D03*
X0076919D03*
X0071211Y0064173D03*
X0072195D03*
X0071211Y0066732D03*
X0072195D03*
X0066486Y0064715D03*
X0065502D03*
X0066486Y0066732D03*
X0065502D03*
X0029331Y0064724D03*
X0028346D03*
X0029331Y0066732D03*
X0028346D03*
X0045325Y0057825D03*
Y0056841D03*
X0029331Y0062205D03*
X0028347D03*
X0034055Y0064203D03*
X0035039D03*
X0034055Y0066732D03*
X0035039D03*
X0038780Y0062205D03*
X0039764D03*
X0038780Y0066732D03*
X0039764D03*
X0045325Y0061614D03*
Y0060630D03*
G54D46*
X0059793Y0058809D03*
Y0062598D03*
X0074951Y0062205D03*
X0067470D03*
X0074951Y0066732D03*
X0070226Y0064173D03*
Y0066732D03*
X0067470Y0064715D03*
Y0066732D03*
X0030315Y0064724D03*
Y0066732D03*
X0045325Y0058809D03*
X0030315Y0062205D03*
X0033071Y0064203D03*
Y0066732D03*
X0037795Y0062205D03*
Y0066732D03*
X0045325Y0062598D03*
G54D47*
X0079478Y0045915D03*
X0077510D03*
X0075541D03*
X0066880Y0045866D03*
X0064912D03*
X0062943D03*
X0053543Y0045965D03*
X0051575D03*
X0029724Y0045866D03*
X0027756D03*
X0025787D03*
X0042323D03*
X0040354D03*
X0038386D03*
G54D48*
X0071195Y0040212D03*
X0075427Y0054206D03*
X0066963D03*
X0029807Y0054157D03*
X0034039Y0040212D03*
X0038272Y0054157D03*
G54D49*
X0071211Y0046161D03*
X0072195D03*
X0075427Y0059006D03*
X0074459D03*
X0066963D03*
X0065994D03*
X0029807Y0058957D03*
X0028839D03*
X0034055Y0046161D03*
X0035039D03*
X0038272Y0058957D03*
X0037303D03*
G54D50*
X0070226Y0046161D03*
X0076427Y0059006D03*
X0067963D03*
X0030807Y0058957D03*
X0033071Y0046161D03*
X0039272Y0058957D03*
G54D51*
X0079478Y0050197D03*
Y0060433D03*
X0062943Y0050246D03*
Y0060482D03*
X0025787Y0050197D03*
Y0060433D03*
X0042323D03*
Y0050197D03*
G54D52*
X0072244Y0052362D03*
X0076919Y0063455D03*
X0035059Y0052264D03*
X0039724Y0063455D03*
G54D53*
X0058366Y0050197D03*
Y0063976D03*
X0046752Y0050197D03*
Y0063976D03*
X0061024Y0047146D03*
X0081496D03*
X0074163Y0050197D03*
X0078100D03*
X0064272Y0050295D03*
X0068209D03*
X0073278Y0057874D03*
Y0053937D03*
X0069144Y0057874D03*
Y0053937D03*
X0069193Y0048622D03*
X0073130D03*
X0023868Y0047096D03*
X0044341D03*
X0032087Y0048622D03*
X0036024D03*
X0036909Y0050197D03*
X0040846D03*
X0027185D03*
X0031122D03*
X0036122Y0057874D03*
Y0053937D03*
X0031988Y0057874D03*
Y0053937D03*
G54D54*
X0054035Y0063681D03*
X0051083D03*
X0054035Y0057776D03*
X0051083D03*
X0054035Y0055807D03*
X0051083D03*
X0054035Y0053839D03*
X0051083D03*
G54D55*
X0056398D03*
Y0045965D03*
X0048720Y0053839D03*
Y0045965D03*
G54D56*
X0055053Y0069390D03*
X0054053D03*
X0053053D03*
X0052053D03*
X0051053D03*
X0050053D03*
X0049053D03*
G54D57*
X0056053D03*
G54D58*
X0059218Y0068209D03*
X0044257D03*
G54D59*
X0060778D03*
X0045817D03*
G54D60*
X0075516Y0069390D03*
X0038272D03*
G54D61*
X0076516D03*
X0039272D03*
G54D73*
X0068868D03*
M02*
