%
T1C0.015F200S100
X031693Y060433
X031693Y069390
X068868Y069390
X068868Y060482
T11C0.070F200S100
X044257Y068209
X045817Y068209
X059218Y068209
X060778Y068209
T3C0.031F200S100
X025197Y053396
X026378Y053396
X026378Y057333
X025197Y057332
X028839Y068701
X029839Y068701
X041732Y053396
X042913Y053396
X042913Y057333
X041732Y057332
X048720Y055807
X048720Y058807
X051575Y048327
X051575Y052264
X053543Y048327
X053543Y052264
X056398Y055807
X056398Y058807
X062352Y053346
X063533Y053346
X063533Y057283
X062352Y057283
X065994Y068701
X066994Y068701
X078888Y053346
X080069Y053346
X080069Y057283
X078888Y057283
T7C0.040F200S100
X028346Y064724
X028346Y066732
X028347Y062205
X029331Y064724
X029331Y066732
X029331Y062205
X030315Y064724
X030315Y066732
X030315Y062205
X033071Y064203
X034055Y064203
X034055Y066732
X033071Y066732
X035039Y064203
X035039Y066732
X037795Y062205
X037795Y066732
X038780Y062205
X039764Y062205
X039764Y066732
X038780Y066732
X045325Y056841
X045325Y057825
X045325Y058809
X045325Y060630
X045325Y061614
X045325Y062598
X059793Y056841
X059793Y057825
X059793Y058809
X059793Y060630
X059793Y061614
X059793Y062598
X065502Y062205
X066486Y062205
X066486Y064715
X065502Y064715
X065502Y066732
X066486Y066732
X067470Y062205
X067470Y064715
X067470Y066732
X070226Y064173
X070226Y066732
X071211Y064173
X072195Y064173
X072195Y066732
X071211Y066732
X074951Y062205
X075935Y062205
X075935Y066732
X074951Y066732
X076919Y062205
X076919Y066732
T9C0.054F200S100
X028839Y058957
X029807Y058957
X030807Y058957
X033071Y046161
X034055Y046161
X035039Y046161
X037303Y058957
X038272Y058957
X039272Y058957
X065994Y059006
X066963Y059006
X067963Y059006
X070226Y046161
X071211Y046161
X072195Y046161
X074459Y059006
X075427Y059006
X076427Y059006
T15C0.147F200S100
X029807Y054157
X034039Y040212
X038272Y054157
X066963Y054206
X071195Y040212
X075427Y054206
T14C0.110F200S100
X025787Y045866
X027756Y045866
X029724Y045866
X038386Y045866
X040354Y045866
X042323Y045866
X051575Y045965
X053543Y045965
X062943Y045866
X064912Y045866
X066880Y045866
X075541Y045915
X077510Y045915
X079478Y045915
T4C0.034F200S100
X027264Y060433
X029823Y060433
X032579Y062205
X033268Y053937
X033268Y056496
X033268Y057874
X033268Y060433
X034842Y053937
X034842Y056496
X034843Y057874
X034843Y060433
X035579Y062205
X038288Y060433
X040846Y060433
X048720Y060434
X048720Y066339
X051083Y066339
X054035Y066339
X056398Y060434
X056398Y066339
X064400Y060482
X066959Y060482
X069685Y062205
X070423Y053937
X071998Y053937
X071998Y056496
X071998Y057923
X070423Y056496
X070423Y057923
X070423Y060482
X071998Y060482
X072685Y062205
X075423Y060433
X077982Y060433
T6C0.039F200S100
X033059Y052264
X034059Y050264
X035059Y052264
X039724Y063455
X039724Y065455
X041724Y064455
X070244Y052362
X071244Y050362
X072244Y052362
X076919Y063455
X076919Y065455
X078919Y064455
T12C0.080F200S100
X025787Y050197
X025787Y060433
X042323Y050197
X042323Y060433
X062943Y050246
X062943Y060482
X079478Y050197
X079478Y060433
T2C0.028F200S100
X023868Y047096
X027185Y050197
X031122Y050197
X031988Y053937
X031988Y057874
X032087Y048622
X036024Y048622
X036122Y053937
X036909Y050197
X036122Y057874
X040846Y050197
X044341Y047096
X046752Y050197
X058366Y050197
X058366Y063976
X046752Y063976
X061024Y047146
X064272Y050295
X068209Y050295
X069144Y053937
X069144Y057874
X069193Y048622
X073130Y048622
X073278Y053937
X074163Y050197
X073278Y057874
X078100Y050197
X081496Y047146
T10C0.060F200S100
X051083Y053839
X051083Y055807
X051083Y057776
X054035Y053839
X054035Y055807
X054035Y057776
X054035Y063681
X051083Y063681
T5C0.037F200S100
X049053Y069390
X050053Y069390
X051053Y069390
X052053Y069390
X053053Y069390
X054053Y069390
X055053Y069390
X056053Y069390
T13C0.105F200S100
X048720Y045965
X056398Y045965
X056398Y053839
X048720Y053839
T8C0.042F200S100
X038272Y069390
X039272Y069390
X075516Y069390
X076516Y069390
M30
