*
G04 Mass Parameters ***
*
G04 Image ***
*
%IND:\PROJECTS\ORCAD\POMPCONTROL\SCHEM7.SST*%
%ICAS*%
%MOIN*%
%IPPOS*%
%ASAXBY*%
G74*%FSLAN2X34Y34*%
*
G04 Aperture Definitions ***
*
%ADD10C,0.0004*%
%ADD11C,0.0550*%
%ADD12R,0.0550X0.0550*%
%ADD13C,0.0610*%
%ADD14R,0.0610X0.0610*%
%ADD15C,0.0520*%
%ADD16R,0.0520X0.0520*%
%ADD17C,0.0984*%
%ADD18C,0.0620*%
%ADD19C,0.0580*%
%ADD20R,0.0580X0.0580*%
%ADD21R,0.0984X0.0984*%
%ADD22C,0.0300*%
%ADD23C,0.0100*%
%ADD24C,0.0300*%
%ADD25R,0.0600X0.0600*%
%ADD26O,0.0940X0.0250*%
%ADD27R,0.0940X0.0250*%
%ADD28O,0.0900X0.0160*%
%ADD29R,0.0900X0.0160*%
%ADD30R,0.2200X0.2300*%
%ADD31R,0.0560X0.0720*%
%ADD32R,0.1420X0.0880*%
%ADD33R,0.0480X0.0880*%
%ADD34R,0.0340X0.0500*%
%ADD35R,0.0340X0.0400*%
%ADD36C,0.0098*%
%ADD37C,0.0197*%
%ADD38C,0.0591*%
%ADD39C,0.1575*%
%ADD40C,0.0750*%
%ADD41R,0.0750X0.0750*%
%ADD42C,0.0810*%
%ADD43R,0.0810X0.0810*%
%ADD44C,0.0720*%
%ADD45R,0.0720X0.0720*%
%ADD46C,0.1181*%
%ADD47C,0.0700*%
%ADD48C,0.0780*%
%ADD49R,0.0780X0.0780*%
%ADD50R,0.1181X0.1181*%
%ADD51C,0.0600*%
%ADD52C,0.0600*%
%ADD53C,0.0669*%
%ADD54C,0.0350*%
%ADD55C,0.0350*%
%ADD56C,0.0080*%
%ADD57C,0.0078*%
%ADD58C,0.0120*%
*
G04 Plot Data ***
*
G54D23*
G01X0006761Y0008849D02*
Y0008682D01*
Y0008766D02*
X0006261D01*
X0006345Y0008682D01*
Y0008357D02*
X0006261Y0008316D01*
Y0008066D01*
X0006345Y0008024D01*
X0006428D01*
X0006511Y0008066D01*
Y0008316D01*
X0006595Y0008357D01*
X0006678D01*
X0006761Y0008316D01*
Y0008066D01*
X0006678Y0008024D01*
X0009320Y0007274D02*
Y0007108D01*
Y0007191D02*
X0008820D01*
X0008904Y0007108D01*
Y0006783D02*
X0008820Y0006741D01*
Y0006491D01*
X0008904Y0006449D01*
X0008987D01*
X0009070Y0006491D01*
Y0006741D01*
X0009154Y0006783D01*
X0009237D01*
X0009320Y0006741D01*
Y0006491D01*
X0009237Y0006449D01*
G54D36*
G01X0005640Y0030907D02*
X0005465D01*
X0005552D02*
Y0031432D01*
X0005465Y0031345D01*
X0005137Y0031432D02*
Y0030995D01*
X0005094Y0030907D01*
X0004831D01*
X0004787Y0030995D01*
Y0031432D01*
X0004460Y0031170D02*
X0004197D01*
Y0030907D02*
Y0031432D01*
X0004547D01*
X0010029Y0017104D02*
X0010204D01*
X0010116D02*
Y0016579D01*
X0010204Y0016667D01*
X0010619Y0016842D02*
X0010882D01*
X0010532Y0017104D02*
X0010882D01*
Y0016579D01*
X0010532D01*
X0011253Y0016842D02*
X0011122Y0017104D01*
X0011472Y0016842D02*
X0011210D01*
X0011122Y0016754D01*
Y0016667D01*
X0011210Y0016579D01*
X0011472D01*
Y0017104D01*
X0018012Y0024606D02*
Y0024410D01*
X0018701Y0024606D02*
X0019882D01*
Y0025984D01*
X0018701D01*
Y0024606D01*
X0019882Y0025591D02*
X0018701D01*
X0019291Y0025984D02*
Y0026181D01*
X0010059Y0027933D02*
X0006516D01*
X0010059Y0026359D02*
X0006516D01*
X0003760Y0025965D02*
X0006516D01*
Y0028326D01*
X0003760D01*
Y0025965D01*
X0010059D02*
X0012815D01*
Y0028326D01*
X0010059D01*
Y0025965D01*
X0013090Y0021653D02*
Y0015354D01*
X0004823D01*
Y0021653D01*
X0013090D01*
X0019291Y0024606D02*
Y0024410D01*
X0017323Y0025984D02*
X0016142D01*
Y0024606D01*
X0017323D01*
Y0025984D01*
X0016142Y0025000D02*
X0017323D01*
X0016732Y0024606D02*
Y0024409D01*
Y0025984D02*
Y0026181D01*
X0021161Y0025984D02*
X0019980D01*
Y0024606D01*
X0021161D01*
Y0025984D01*
X0019980Y0025000D02*
X0021161D01*
X0020571Y0024606D02*
Y0024409D01*
Y0025984D02*
Y0026181D01*
X0017421Y0024606D02*
X0018602D01*
Y0025984D01*
X0017421D01*
Y0024606D01*
X0018602Y0025591D02*
X0017421D01*
X0018012Y0025984D02*
Y0026181D01*
G54D56*
G01X0019127Y0026260D02*
Y0026482D01*
X0019350Y0026371D01*
Y0026316D01*
X0019016D01*
Y0026864D02*
X0019350D01*
X0019016Y0026892D02*
Y0026726D01*
X0019127Y0026670D01*
X0019239D01*
X0019350Y0026726D01*
Y0026892D01*
X0014652Y0018780D02*
X0014708Y0018752D01*
X0014763D01*
X0014819Y0018780D01*
Y0018947D01*
X0014763Y0018974D01*
X0014708D01*
X0014652Y0018947D01*
Y0018780D01*
X0014597Y0018752D01*
X0014541D01*
X0014486Y0018780D01*
Y0018947D01*
X0014541Y0018974D01*
X0014597D01*
X0014652Y0018947D01*
X0014486Y0019357D02*
X0014819D01*
X0014486Y0019384D02*
Y0019218D01*
X0014597Y0019162D01*
X0014708D01*
X0014819Y0019218D01*
Y0019384D01*
X0009545Y0021761D02*
X0009656D01*
X0009601D02*
Y0021428D01*
X0009656Y0021483D01*
X0009899Y0021706D02*
X0009927Y0021761D01*
X0010094D01*
X0010122Y0021706D01*
Y0021483D01*
X0010094Y0021428D01*
X0009927D01*
X0009899Y0021483D01*
X0018582Y0018801D02*
Y0018634D01*
X0018526Y0018607D01*
X0018471D01*
X0018415Y0018634D01*
Y0018801D01*
X0018471Y0018829D01*
X0018526D01*
X0018748Y0018718D01*
X0018471Y0019017D02*
X0018415Y0019044D01*
Y0019211D01*
X0018471Y0019239D01*
X0018693D01*
X0018748Y0019211D01*
Y0019044D01*
X0018693Y0019017D01*
X0012429Y0010458D02*
X0012262Y0010125D01*
X0012484D01*
X0012867Y0010458D02*
Y0010125D01*
X0012894Y0010458D02*
X0012728D01*
X0012672Y0010347D01*
Y0010236D01*
X0012728Y0010125D01*
X0012894D01*
X0015050Y0021452D02*
Y0021230D01*
X0014827Y0021452D01*
X0014772D01*
X0014716Y0021425D01*
Y0021258D01*
X0014772Y0021230D01*
X0014994Y0021042D02*
X0015050Y0021015D01*
Y0020848D01*
X0014994Y0020820D01*
X0014772D01*
X0014716Y0020848D01*
Y0021015D01*
X0014772Y0021042D01*
X0000095Y0011928D02*
Y0012039D01*
Y0011984D02*
X0000428D01*
X0000372Y0012039D01*
Y0012283D02*
X0000428Y0012311D01*
Y0012477D01*
X0000372Y0012505D01*
X0000317D01*
X0000261Y0012477D01*
Y0012311D01*
X0000206Y0012283D01*
X0000150D01*
X0000095Y0012311D01*
Y0012477D01*
X0000150Y0012505D01*
X0000095Y0012693D02*
X0000428Y0012859D01*
Y0012693D02*
X0000095Y0012859D01*
X0001594Y0013415D02*
Y0013526D01*
Y0013470D02*
X0001928D01*
X0001872Y0013526D01*
X0013589Y0027048D02*
Y0026937D01*
Y0026992D02*
X0013256D01*
X0013311Y0026937D01*
X0013589Y0026693D02*
Y0026582D01*
Y0026638D02*
X0013256D01*
X0013311Y0026582D01*
X0013422Y0026255D02*
X0013589Y0026339D01*
X0013422Y0026117D02*
Y0026283D01*
X0013367Y0026339D01*
X0013311D01*
X0013256Y0026283D01*
Y0026117D01*
X0013589D01*
X0020351Y0026482D02*
X0020296Y0026454D01*
Y0026288D01*
X0020351Y0026260D01*
X0020463D01*
X0020518Y0026316D01*
Y0026482D01*
X0020629D01*
Y0026260D01*
X0020296Y0026864D02*
X0020629D01*
X0020296Y0026892D02*
Y0026726D01*
X0020407Y0026670D01*
X0020518D01*
X0020629Y0026726D01*
Y0026892D01*
X0012457Y0012457D02*
X0012290D01*
X0012262Y0012512D01*
Y0012568D01*
X0012290Y0012623D01*
X0012457D01*
X0012484Y0012568D01*
Y0012512D01*
X0012373Y0012290D01*
X0012867Y0012623D02*
Y0012290D01*
X0012894Y0012623D02*
X0012728D01*
X0012672Y0012512D01*
Y0012401D01*
X0012728Y0012290D01*
X0012894D01*
X0015728Y0024331D02*
Y0024108D01*
X0015506Y0024331D01*
X0015450D01*
X0015394Y0024303D01*
Y0024136D01*
X0015450Y0024108D01*
X0015728Y0023726D02*
X0015394D01*
X0015728Y0023698D02*
Y0023865D01*
X0015617Y0023921D01*
X0015506D01*
X0015394Y0023865D01*
Y0023698D01*
X0016674Y0006758D02*
X0016563D01*
X0016618D02*
Y0007091D01*
X0016563Y0007036D01*
X0016097Y0006925D02*
X0016264D01*
X0016320Y0006980D01*
Y0007036D01*
X0016264Y0007091D01*
X0016097D01*
Y0006758D01*
X0015910D02*
X0015743Y0007091D01*
X0015910D02*
X0015743Y0006758D01*
X0015187Y0008258D02*
X0015076D01*
X0015132D02*
Y0008591D01*
X0015076Y0008536D01*
X0022049Y0008424D02*
X0022215D01*
X0022243Y0008369D01*
Y0008313D01*
X0022215Y0008258D01*
X0022049D01*
X0022021Y0008313D01*
Y0008369D01*
X0022132Y0008591D01*
X0019511Y0024108D02*
X0019566Y0024164D01*
Y0024275D01*
X0019511Y0024331D01*
X0019455D01*
X0019344Y0024219D01*
X0019233Y0024331D01*
Y0024108D01*
X0019566Y0023726D02*
X0019233D01*
X0019566Y0023698D02*
Y0023865D01*
X0019455Y0023921D01*
X0019344D01*
X0019233Y0023865D01*
Y0023698D01*
X0014378Y0019143D02*
X0013378D01*
Y0019518D02*
X0014378D01*
Y0017518D01*
X0013378D01*
Y0019518D01*
X0005004Y0025569D02*
Y0022069D01*
X0013004D01*
Y0025569D01*
X0005004D01*
X0002262Y0010970D02*
X0001262D01*
Y0012970D01*
X0002262D01*
Y0010970D01*
X0014897Y0028484D02*
X0013647D01*
Y0025484D01*
X0014897D01*
Y0028484D01*
X0021632Y0008925D02*
Y0007925D01*
X0015632D01*
Y0008925D01*
X0021632D01*
G01X0016732Y0019996D02*
G03X0015107Y0018371I0000000J0001625D01*
G03X0016732Y0016746I0001625J0000000D01*
G03X0018357Y0018371I0000000J0001625D01*
G03X0016732Y0019996I0001625J0000000D01*
G01X0012902Y0011516D02*
G03X0011902Y0012516I0001000J0000000D01*
G03X0010902Y0011516I0000000J0001000D01*
G03X0011902Y0010516I0001000J0000000D01*
G03X0012902Y0011516I0000000J0001000D01*
G01X0016732Y0020063D02*
G03X0018357Y0021688I0000000J0001625D01*
G03X0016732Y0023313I0001625J0000000D01*
G03X0015107Y0021688I0000000J0001625D01*
G03X0016732Y0020063I0001625J0000000D01*
G01X0012902Y0013681D02*
G03X0011902Y0014681I0001000J0000000D01*
G03X0010902Y0013681I0000000J0001000D01*
G03X0011902Y0012681I0001000J0000000D01*
G03X0012902Y0013681I0000000J0001000D01*
G54D57*
G01X0010305Y0007786D02*
X0007943D01*
Y0010147D01*
X0010305D01*
Y0007786D01*
G54D58*
G01X0013878Y0017518D02*
Y0017018D01*
Y0016768D01*
Y0020268D02*
Y0020018D01*
Y0019518D01*
M02*
