*
G04 Mass Parameters ***
*
G04 Image ***
*
%IND:\PROJECTS\ORCAD\POMPCONTROL\SCHEM7.TOP*%
%ICAS*%
%MOIN*%
%IPPOS*%
%ASAXBY*%
G74*%FSLAN2X34Y34*%
*
G04 Aperture Definitions ***
*
%ADD10C,0.0004*%
%ADD11C,0.0550*%
%ADD12R,0.0550X0.0550*%
%ADD13C,0.0610*%
%ADD14R,0.0610X0.0610*%
%ADD15C,0.0520*%
%ADD16R,0.0520X0.0520*%
%ADD17C,0.0984*%
%ADD18C,0.0620*%
%ADD19C,0.0580*%
%ADD20R,0.0580X0.0580*%
%ADD21R,0.0984X0.0984*%
%ADD22C,0.0300*%
%ADD23C,0.0100*%
%ADD24C,0.0300*%
*
G04 Plot Data ***
*
G54D23*
G01X-0001283Y0017890D02*
X-0001366Y0017806D01*
X-0001450Y0017765D01*
X-0001616D01*
X-0001700Y0017806D01*
X-0001783Y0017890D01*
Y0017973D01*
X-0001700Y0018056D01*
X-0001616Y0018098D01*
X-0001450D01*
X-0001366Y0018056D01*
X-0001283Y0017973D01*
Y0017890D01*
Y0017315D02*
X-0001366Y0017231D01*
X-0001450Y0017190D01*
X-0001616D01*
X-0001700Y0017231D01*
X-0001783Y0017315D01*
Y0017398D01*
X-0001700Y0017481D01*
X-0001616Y0017523D01*
X-0001450D01*
X-0001366Y0017481D01*
X-0001283Y0017398D01*
Y0017315D01*
Y0016740D02*
X-0001366Y0016656D01*
X-0001450Y0016615D01*
X-0001616D01*
X-0001700Y0016656D01*
X-0001783Y0016740D01*
Y0016823D01*
X-0001700Y0016906D01*
X-0001616Y0016948D01*
X-0001450D01*
X-0001366Y0016906D01*
X-0001283Y0016823D01*
Y0016740D01*
Y0016290D02*
Y0016373D01*
X-0001366D01*
Y0016290D01*
X-0001283D01*
X-0001366Y0015631D02*
X-0001283Y0015715D01*
Y0015881D01*
X-0001366Y0015965D01*
X-0001450D01*
X-0001616Y0015798D01*
X-0001783Y0015965D01*
Y0015631D01*
X-0001533Y0015098D02*
Y0015348D01*
X-0001450Y0015390D01*
X-0001366D01*
X-0001283Y0015348D01*
Y0015098D01*
X-0001366Y0015056D01*
X-0001450D01*
X-0001783Y0015223D01*
X-0001762Y0028375D02*
X-0001575Y0028937D01*
X-0001387Y0028375D01*
X-0000450Y0004134D02*
X-0002700D01*
X-0001575Y0014452D02*
Y0004134D01*
X-0001387Y0004696D02*
X-0001575Y0004134D01*
X-0001762Y0004696D01*
X-0000450Y0028937D02*
X-0002700D01*
X-0001575Y0018619D02*
Y0028937D01*
G54D11*
X0016732Y0017746D03*
Y0022313D03*
X0012004Y0023819D03*
X0006004D03*
G54D12*
X0016732Y0018996D03*
Y0021063D03*
G54D13*
X0019291Y0024016D03*
X0018012D03*
X0020571Y0026575D03*
X0016732D03*
G54D14*
X0019291D03*
X0018012D03*
X0020571Y0024016D03*
X0016732D03*
G54D15*
X0014272Y0025984D03*
Y0027984D03*
X0013878Y0016268D03*
X0011402Y0011516D03*
Y0013681D03*
G54D16*
X0013878Y0020768D03*
X0012402Y0011516D03*
Y0013681D03*
G54D17*
X0002264Y0019421D03*
Y0024441D03*
X0011516Y0020866D03*
Y0016142D03*
X0012303Y0018504D03*
X0006791Y0020866D03*
Y0016142D03*
X0004154Y0027146D03*
X0010453D03*
X0006122D03*
X0012421D03*
G54D18*
X0010344Y0007982D03*
Y0009950D03*
X0007884D03*
Y0007982D03*
G54D19*
X0001762Y0011470D03*
X0017132Y0008425D03*
X0018132D03*
X0019132D03*
X0020132D03*
X0021132D03*
G54D20*
X0001762Y0012470D03*
X0016132Y0008425D03*
G54D21*
X0002264Y0017421D03*
Y0022441D03*
G54D22*
X0007972Y0011024D03*
G54D24*
X0021161Y0010925D03*
M02*
