*
G04 Mass Parameters ***
*
G04 Image ***
*
%IND:\PROJECTS\ORCAD\POMPCONTROL\SCHEM7.BOT*%
%ICAS*%
%MOIN*%
%IPPOS*%
%ASAXBY*%
G74*%FSLAN2X34Y34*%
*
G04 Aperture Definitions ***
*
%ADD10C,0.0004*%
%ADD11C,0.0550*%
%ADD12R,0.0550X0.0550*%
%ADD13C,0.0610*%
%ADD14R,0.0610X0.0610*%
%ADD15C,0.0520*%
%ADD16R,0.0520X0.0520*%
%ADD17C,0.0984*%
%ADD18C,0.0620*%
%ADD19C,0.0580*%
%ADD20R,0.0580X0.0580*%
%ADD21R,0.0984X0.0984*%
%ADD22C,0.0300*%
%ADD23C,0.0100*%
%ADD24C,0.0300*%
%ADD25R,0.0600X0.0600*%
%ADD26O,0.0940X0.0250*%
%ADD27R,0.0940X0.0250*%
%ADD28O,0.0900X0.0160*%
%ADD29R,0.0900X0.0160*%
%ADD30R,0.2200X0.2300*%
%ADD31R,0.0560X0.0720*%
%ADD32R,0.1420X0.0880*%
%ADD33R,0.0480X0.0880*%
%ADD34R,0.0340X0.0500*%
%ADD35R,0.0340X0.0400*%
%ADD36C,0.0098*%
%ADD37C,0.0197*%
%ADD38C,0.0591*%
%ADD39C,0.1575*%
*
G04 Plot Data ***
*
G54D23*
G01X0013165Y0030023D02*
X0013082Y0030107D01*
X0013040Y0030190D01*
Y0030357D01*
X0013082Y0030440D01*
X0013165Y0030523D01*
X0013248D01*
X0013332Y0030440D01*
X0013373Y0030357D01*
Y0030190D01*
X0013332Y0030107D01*
X0013248Y0030023D01*
X0013165D01*
X0012590D02*
X0012507Y0030107D01*
X0012465Y0030190D01*
Y0030357D01*
X0012507Y0030440D01*
X0012590Y0030523D01*
X0012674D01*
X0012757Y0030440D01*
X0012799Y0030357D01*
Y0030190D01*
X0012757Y0030107D01*
X0012674Y0030023D01*
X0012590D01*
X0012015D02*
X0011932Y0030107D01*
X0011890Y0030190D01*
Y0030357D01*
X0011932Y0030440D01*
X0012015Y0030523D01*
X0012099D01*
X0012182Y0030440D01*
X0012224Y0030357D01*
Y0030190D01*
X0012182Y0030107D01*
X0012099Y0030023D01*
X0012015D01*
X0011565D02*
X0011649D01*
Y0030107D01*
X0011565D01*
Y0030023D01*
X0011032D02*
X0010949Y0030107D01*
X0010907Y0030190D01*
Y0030357D01*
X0010949Y0030440D01*
X0011032Y0030523D01*
X0011115D01*
X0011199Y0030440D01*
X0011240Y0030357D01*
Y0030190D01*
X0011199Y0030107D01*
X0011115Y0030023D01*
X0011032D01*
X0010374Y0030273D02*
X0010624D01*
X0010665Y0030190D01*
Y0030107D01*
X0010624Y0030023D01*
X0010374D01*
X0010332Y0030107D01*
Y0030190D01*
X0010499Y0030523D01*
X0000000Y0029190D02*
Y0031440D01*
X0009728Y0030315D02*
X0000000D01*
X0000562Y0030127D02*
X0000000Y0030315D01*
X0000562Y0030502D01*
X0023622Y0029190D02*
Y0031440D01*
X0013894Y0030315D02*
X0023622D01*
X0023060Y0030502D02*
X0023622Y0030315D01*
X0023060Y0030127D01*
G54D36*
G01X0014883Y0013681D02*
X0015846D01*
Y0012205D01*
X0016093Y0011959D01*
X0016102Y0011950D02*
X0016831D01*
X0019921Y0012834D02*
X0019911Y0012844D01*
X0019144D01*
X0018602Y0012303D01*
Y0010926D01*
X0019531D01*
X0019966Y0021306D02*
X0020079Y0021193D01*
X0019921Y0014134D02*
X0019941D01*
X0020472Y0014665D01*
Y0015315D01*
X0020079Y0015709D01*
Y0017507D01*
Y0021193D02*
X0019966Y0021306D01*
X0017028Y0015846D02*
Y0015896D01*
X0016289Y0016634D01*
X0014862D01*
X0014419Y0017077D01*
X0010384D01*
X0010187Y0016880D01*
Y0014665D01*
X0016831Y0010670D02*
X0015788D01*
X0015551Y0010433D01*
Y0009744D01*
X0014961Y0009154D01*
X0014469D01*
X0017928Y0013406D02*
X0020599D01*
X0020620Y0013386D01*
Y0011024D01*
X0020266Y0010670D01*
X0019531D01*
X0016831D02*
X0017510D01*
X0017928Y0011087D01*
Y0013406D01*
X0013445Y0009154D02*
X0013484Y0009193D01*
Y0009547D01*
X0013583Y0009646D01*
X0015059D01*
X0015256Y0009843D01*
Y0010531D01*
X0015650Y0010926D01*
X0016831D01*
X0010226Y0011919D02*
X0009547Y0011240D01*
Y0009941D01*
X0010039Y0009449D01*
X0011909D01*
X0012402Y0009942D01*
X0016831Y0010414D02*
X0016024D01*
X0015846Y0010236D01*
Y0009547D01*
X0014765Y0008465D01*
Y0007864D01*
X0008927Y0009872D02*
X0009646Y0009154D01*
X0013445D01*
X0018132Y0008425D02*
Y0009821D01*
X0017539Y0010414D01*
X0016831D01*
X0012402Y0009942D02*
X0014566D01*
X0014567D02*
Y0009941D01*
X0014862D01*
X0015059Y0010138D01*
Y0010728D01*
X0015512Y0011182D01*
X0016831D01*
X0020132Y0008425D02*
X0020571Y0008864D01*
Y0009449D01*
X0020374Y0009646D01*
X0019531D01*
X0019132Y0008425D02*
X0018602Y0008955D01*
Y0009646D01*
X0018858Y0009902D01*
X0019531D01*
X0014940Y0011438D02*
X0016831D01*
X0014883Y0012598D02*
X0015551D01*
X0015600Y0012549D01*
Y0012106D01*
X0016013Y0011694D01*
X0016831D01*
X0007512Y0020110D02*
X0006268D01*
X0002953Y0023228D02*
X0001575D01*
X0004528Y0024803D02*
X0002953Y0023228D01*
X0006102Y0024803D02*
X0004528D01*
X0006102D02*
X0006299Y0024606D01*
X0007480D02*
X0006299D01*
X0007480D02*
X0007677Y0024409D01*
Y0020276D01*
X0007480Y0020079D01*
X0006299D01*
X0005315Y0021063D02*
X0006299Y0020079D01*
X0005315Y0021063D02*
X0004528D01*
X0003937Y0021654D02*
X0004528Y0021063D01*
X0003937Y0021654D02*
X0001575D01*
Y0023228D02*
Y0021654D01*
X0007677Y0022501D02*
X0001575D01*
X0007628Y0024459D02*
Y0020226D01*
X0007539Y0024548D02*
Y0020137D01*
X0007450Y0024606D02*
Y0020079D01*
X0007362Y0024606D02*
Y0020079D01*
X0007273Y0024606D02*
Y0020079D01*
X0007185Y0024606D02*
Y0020079D01*
X0007096Y0024606D02*
Y0020079D01*
X0007008Y0024606D02*
Y0020079D01*
X0006919Y0024606D02*
Y0020079D01*
X0006831Y0024606D02*
Y0020079D01*
X0006742Y0024606D02*
Y0020079D01*
X0006654Y0024606D02*
Y0020079D01*
X0006565Y0024606D02*
Y0020079D01*
X0006476Y0024606D02*
Y0020079D01*
X0006388Y0024606D02*
Y0020079D01*
X0006299Y0024606D02*
Y0020079D01*
X0006211Y0024695D02*
Y0020167D01*
X0006122Y0024783D02*
Y0020256D01*
X0006034Y0024803D02*
Y0020344D01*
X0005945Y0024803D02*
Y0020433D01*
X0005857Y0024803D02*
Y0020521D01*
X0005768Y0024803D02*
Y0020610D01*
X0005679Y0024803D02*
Y0020698D01*
X0005591Y0024803D02*
Y0020787D01*
X0005502Y0024803D02*
Y0020876D01*
X0005414Y0024803D02*
Y0020964D01*
X0005325Y0024803D02*
Y0021053D01*
X0005237Y0024803D02*
Y0021063D01*
X0005148Y0024803D02*
Y0021063D01*
X0005060Y0024803D02*
Y0021063D01*
X0004971Y0024803D02*
Y0021063D01*
X0004883Y0024803D02*
Y0021063D01*
X0004794Y0024803D02*
Y0021063D01*
X0007677Y0021350D02*
X0004241D01*
X0004617Y0024803D02*
Y0021063D01*
X0004528Y0024804D02*
Y0021063D01*
X0004440Y0024715D02*
Y0021151D01*
X0004351Y0024627D02*
Y0021239D01*
X0004263Y0024538D02*
Y0021328D01*
X0004174Y0024450D02*
Y0021416D01*
X0004086Y0024361D02*
Y0021505D01*
X0003997Y0024273D02*
Y0021594D01*
X0003908Y0024184D02*
Y0021654D01*
X0003820Y0024095D02*
Y0021654D01*
X0003731Y0024007D02*
Y0021654D01*
X0003643Y0023918D02*
Y0021654D01*
X0003554Y0023830D02*
Y0021654D01*
X0003466Y0023741D02*
Y0021654D01*
X0003377Y0023653D02*
Y0021654D01*
X0003289Y0023564D02*
Y0021654D01*
X0003200Y0023476D02*
Y0021654D01*
X0003111Y0023387D02*
Y0021654D01*
X0003023Y0023299D02*
Y0021654D01*
X0002934Y0023228D02*
Y0021654D01*
X0002846Y0023228D02*
Y0021654D01*
X0002757Y0023228D02*
Y0021654D01*
X0002669Y0023228D02*
Y0021654D01*
X0002580Y0023228D02*
Y0021654D01*
X0002492Y0023228D02*
Y0021654D01*
X0002403Y0023228D02*
Y0021654D01*
X0002315Y0023228D02*
Y0021654D01*
X0002226Y0023228D02*
Y0021654D01*
X0002137Y0023228D02*
Y0021654D01*
X0002049Y0023228D02*
Y0021654D01*
X0001960Y0023228D02*
Y0021654D01*
X0001872Y0023228D02*
Y0021654D01*
X0001783Y0023228D02*
Y0021654D01*
X0001695Y0023228D02*
Y0021654D01*
X0006191Y0024715D02*
X0004439D01*
X0006279Y0024626D02*
X0004351D01*
X0007549Y0024538D02*
X0004262D01*
X0007638Y0024449D02*
X0004173D01*
X0007677Y0024361D02*
X0004085D01*
X0007677Y0024272D02*
X0003996D01*
X0007677Y0024183D02*
X0003908D01*
X0007677Y0024095D02*
X0003819D01*
X0007677Y0024006D02*
X0003731D01*
X0007677Y0023918D02*
X0003642D01*
X0007677Y0023829D02*
X0003554D01*
X0007677Y0023741D02*
X0003465D01*
X0007677Y0023652D02*
X0003377D01*
X0007677Y0023564D02*
X0003288D01*
X0007677Y0023475D02*
X0003199D01*
X0007677Y0023386D02*
X0003111D01*
X0007677Y0023298D02*
X0003022D01*
X0007677Y0023209D02*
X0001575D01*
X0007677Y0023121D02*
X0001575D01*
X0007677Y0023032D02*
X0001575D01*
X0007677Y0022944D02*
X0001575D01*
X0007677Y0022855D02*
X0001575D01*
X0007677Y0022767D02*
X0001575D01*
X0007677Y0022678D02*
X0001575D01*
X0007677Y0022589D02*
X0001575D01*
X0004705Y0024803D02*
Y0021063D01*
X0007677Y0022412D02*
X0001575D01*
X0007677Y0022324D02*
X0001575D01*
X0007677Y0022235D02*
X0001575D01*
X0007677Y0022147D02*
X0001575D01*
X0007677Y0022058D02*
X0001575D01*
X0007677Y0021970D02*
X0001575D01*
X0007677Y0021881D02*
X0001575D01*
X0007677Y0021793D02*
X0001575D01*
X0007677Y0021704D02*
X0001575D01*
X0007677Y0021615D02*
X0003975D01*
X0007677Y0021527D02*
X0004064D01*
X0007677Y0021438D02*
X0004152D01*
X0001606Y0023228D02*
Y0021654D01*
X0007677Y0021261D02*
X0004329D01*
X0007677Y0021173D02*
X0004418D01*
X0007677Y0021084D02*
X0004506D01*
X0007677Y0020996D02*
X0005382D01*
X0007677Y0020907D02*
X0005471D01*
X0007677Y0020818D02*
X0005559D01*
X0007677Y0020730D02*
X0005648D01*
X0007677Y0020641D02*
X0005737D01*
X0007677Y0020553D02*
X0005825D01*
X0007677Y0020464D02*
X0005914D01*
X0007677Y0020376D02*
X0006002D01*
X0007677Y0020287D02*
X0006091D01*
X0007600Y0020199D02*
X0006179D01*
G54D37*
G01X0016732Y0018996D02*
X0015453D01*
X0011402Y0013681D02*
Y0011516D01*
X0010344Y0009950D02*
X0010363Y0009931D01*
X0011418D01*
X0016732Y0018996D02*
X0017913D01*
X0017952Y0018957D01*
X0016732Y0021063D02*
Y0019980D01*
Y0018996D01*
Y0021063D02*
X0015473D01*
X0015453Y0021043D01*
X0016732Y0018996D02*
Y0019980D01*
X0018641D01*
X0019966Y0021306D01*
X0019287Y0021985D01*
Y0024012D01*
X0019291Y0024016D01*
X0019921Y0014134D02*
X0019291Y0014764D01*
X0017815D01*
X0017028Y0015551D01*
Y0015846D01*
X0011402Y0013681D02*
Y0014665D01*
X0013532D01*
X0013512Y0014646D01*
Y0014626D01*
X0011402Y0013681D02*
Y0014665D01*
X0010187D01*
X0008445D01*
X0008120Y0014341D01*
X0011418Y0009931D02*
X0011417Y0009932D01*
Y0010630D01*
X0013269D01*
X0013445Y0010454D01*
X0021132Y0008425D02*
Y0007766D01*
X0020955Y0007589D01*
X0017411D01*
X0017165Y0007835D01*
Y0008392D01*
X0017132Y0008425D01*
X0020079Y0021193D02*
Y0017507D01*
X0021457Y0017520D01*
X0021949Y0017028D01*
Y0009242D01*
X0021132Y0008425D01*
X0011402Y0011516D02*
Y0011450D01*
X0011417Y0011434D01*
Y0010728D01*
Y0010630D01*
X0013269D01*
X0013445Y0010454D01*
X0020079Y0017507D02*
Y0021193D01*
X0010187Y0014665D02*
X0008445D01*
X0008120Y0014341D01*
X0019291Y0024016D02*
X0018012D01*
X0019066Y0018406D02*
Y0017878D01*
X0018856Y0017667D01*
X0018828Y0017639D01*
Y0016792D01*
Y0015846D01*
X0020866Y0018406D02*
Y0018553D01*
X0021555Y0019242D01*
Y0023031D01*
X0020571Y0024016D01*
X0012402Y0008642D02*
X0012480Y0008563D01*
X0013484D01*
X0013878D01*
X0014469Y0009154D01*
X0017952Y0017657D02*
X0017963Y0017667D01*
X0018856D01*
X0019066Y0017878D01*
Y0018406D01*
X0017952Y0017657D02*
X0017253Y0018356D01*
X0014370D01*
X0013878Y0018848D01*
Y0020768D01*
X0011516Y0020866D02*
X0011614Y0020768D01*
X0013878D01*
X0019429Y0016792D02*
X0018828D01*
Y0015846D01*
X0013465Y0007864D02*
X0013484Y0007884D01*
Y0008563D01*
X0013878D01*
X0014469Y0009154D01*
X0016732Y0017746D02*
Y0016880D01*
X0016831Y0016781D01*
X0017766D01*
X0017928Y0016620D01*
Y0015846D01*
X0016732Y0017746D02*
X0016682Y0017696D01*
X0015453D01*
X0012402Y0008642D02*
X0011428D01*
X0011418Y0008631D01*
X0007972Y0011024D02*
X0006299D01*
X0006093Y0011230D01*
X0005415D01*
X0009173Y0011919D02*
X0008278Y0011024D01*
X0007972D01*
X0021161Y0010925D02*
Y0015354D01*
X0020729Y0015787D01*
Y0016792D01*
X0015453Y0022343D02*
X0015482Y0022313D01*
X0016732D01*
Y0024016D02*
X0017913Y0025197D01*
X0019390D01*
X0020571Y0024016D01*
X0004183Y0008740D02*
X0004163Y0008760D01*
X0003740D01*
X0003052Y0009448D01*
Y0010039D01*
X0008091Y0013307D02*
X0007619Y0013780D01*
X0007382D01*
X0006820Y0014341D01*
X0003003Y0014281D02*
X0002963D01*
X0002560Y0013879D01*
Y0012533D01*
X0002864Y0012230D01*
X0003455D01*
X0011516Y0016142D02*
X0012992D01*
X0013118Y0016268D01*
X0013878D01*
X0005415Y0011730D02*
X0006085D01*
X0006398Y0011417D01*
X0007431D01*
X0008100Y0012087D01*
X0013445Y0010454D02*
X0014429D01*
X0011418Y0008631D02*
X0008987D01*
X0008927Y0008572D01*
X0007884Y0007982D02*
X0007972Y0008070D01*
Y0008917D01*
X0008927Y0009872D01*
X0004183Y0010040D02*
X0004232Y0010089D01*
X0004234Y0011230D01*
X0003455D01*
X0004134Y0014301D02*
X0003022D01*
X0003003Y0014281D01*
X0006791Y0013307D02*
Y0012730D01*
X0005415D01*
X0001703Y0014281D02*
X0001762Y0014222D01*
Y0012470D01*
X0016732Y0024016D02*
Y0022313D01*
X0013562Y0011516D02*
X0013583D01*
X0014252Y0012185D01*
Y0014626D01*
X0013583Y0013681D02*
X0012402D01*
X0006820Y0014341D02*
X0006781Y0014301D01*
X0005434D01*
X0008091Y0013307D02*
X0008179Y0013219D01*
X0009173D01*
X0001762Y0011470D02*
X0001752Y0011461D01*
Y0010039D01*
X0019066Y0018406D02*
Y0017878D01*
Y0017836D01*
X0018898Y0017667D01*
X0018856D01*
X0019066Y0017878D01*
Y0018406D01*
X0006800Y0012087D02*
X0006791Y0012096D01*
Y0012730D01*
X0005415D01*
X0008100Y0012087D02*
X0008612Y0012598D01*
X0009606D01*
X0010226Y0013219D01*
X0013878Y0016268D02*
X0013882Y0016264D01*
Y0015416D01*
X0014862Y0011516D02*
X0014940Y0011438D01*
X0003052Y0010039D02*
X0002559Y0010532D01*
Y0011516D01*
X0002774Y0011730D01*
X0003455D01*
X0012402Y0011516D02*
Y0012156D01*
X0012844Y0012598D01*
X0013583D01*
X0003455Y0011230D02*
X0004234D01*
Y0011746D01*
X0004726Y0012238D01*
X0005267D01*
G54D38*
G01X0012004Y0023819D02*
X0010827D01*
X0014272Y0025984D02*
X0012106Y0023819D01*
X0012004D01*
X0016732Y0026575D02*
X0016142Y0025984D01*
X0014272D01*
Y0027984D02*
X0014303D01*
X0014335Y0027953D01*
X0018602D01*
X0019291Y0027264D01*
Y0026575D01*
X0002264Y0019421D02*
X0000787Y0020898D01*
Y0023524D01*
X0001705Y0024441D01*
X0002264D01*
X0006791Y0020866D02*
Y0022441D01*
X0007185Y0022835D01*
Y0023798D01*
X0007165Y0023819D01*
X0012421Y0027146D02*
X0010453D01*
X0012402Y0027165D02*
X0013220Y0027984D01*
X0014272D01*
X0002264Y0022441D02*
X0006791D01*
Y0020866D01*
X0004154Y0027146D02*
X0004153D01*
X0004134Y0027165D01*
X0003051D01*
X0002264Y0026378D01*
Y0024441D01*
X0006122Y0027146D02*
X0004154D01*
X0016831Y0026575D02*
X0018012D01*
X0007165Y0023819D02*
X0006004D01*
X0009527D02*
X0008465D01*
X0019291Y0026575D02*
X0019341Y0026526D01*
X0020571D01*
G54D39*
G01X0002264Y0017421D02*
X0003445D01*
X0004528Y0018504D01*
X0012303D01*
G54D11*
X0016732Y0017746D03*
Y0022313D03*
X0012004Y0023819D03*
X0006004D03*
G54D12*
X0016732Y0018996D03*
Y0021063D03*
G54D13*
X0019291Y0024016D03*
X0018012D03*
X0020571Y0026575D03*
X0016732D03*
G54D14*
X0019291D03*
X0018012D03*
X0020571Y0024016D03*
X0016732D03*
G54D15*
X0014272Y0025984D03*
Y0027984D03*
X0013878Y0016268D03*
X0011402Y0011516D03*
Y0013681D03*
G54D16*
X0013878Y0020768D03*
X0012402Y0011516D03*
Y0013681D03*
G54D17*
X0002264Y0019421D03*
Y0024441D03*
X0011516Y0020866D03*
Y0016142D03*
X0012303Y0018504D03*
X0006791Y0020866D03*
Y0016142D03*
X0004154Y0027146D03*
X0010453D03*
X0006122D03*
X0012421D03*
G54D18*
X0010344Y0007982D03*
Y0009950D03*
X0007884D03*
Y0007982D03*
G54D19*
X0001762Y0011470D03*
X0017132Y0008425D03*
X0018132D03*
X0019132D03*
X0020132D03*
X0021132D03*
G54D20*
X0001762Y0012470D03*
X0016132Y0008425D03*
G54D21*
X0002264Y0017421D03*
Y0022441D03*
G54D22*
X0007972Y0011024D03*
G54D24*
X0021161Y0010925D03*
G54D25*
X0019921Y0014134D03*
Y0012834D03*
X0020729Y0016792D03*
X0019429D03*
X0010827Y0023819D03*
X0009527D03*
X0013465Y0007864D03*
X0014765D03*
X0014862Y0011516D03*
X0013562D03*
X0013583Y0012598D03*
X0014883D03*
X0013583Y0013681D03*
X0014883D03*
X0008927Y0008572D03*
Y0009872D03*
X0008465Y0023819D03*
X0007165D03*
X0009173Y0011919D03*
Y0013219D03*
X0006820Y0014341D03*
X0008120D03*
X0004183Y0008740D03*
Y0010040D03*
X0001752Y0010039D03*
X0003052D03*
X0010226Y0011919D03*
Y0013219D03*
X0001703Y0014281D03*
X0003003D03*
X0004134Y0014301D03*
X0005434D03*
X0008100Y0012087D03*
X0006800D03*
X0006791Y0013307D03*
X0008091D03*
X0012402Y0008642D03*
Y0009942D03*
X0014469Y0009154D03*
Y0010454D03*
X0011418Y0008631D03*
Y0009931D03*
X0013445Y0009154D03*
Y0010454D03*
X0015453Y0017696D03*
Y0018996D03*
X0017952Y0017657D03*
Y0018957D03*
X0015453Y0022343D03*
Y0021043D03*
G54D26*
X0003455Y0011730D03*
Y0012230D03*
Y0012730D03*
X0005415D03*
Y0012230D03*
Y0011730D03*
Y0011230D03*
G54D27*
X0003455D03*
G54D28*
X0016831Y0009902D03*
Y0010158D03*
Y0010414D03*
Y0010670D03*
Y0010926D03*
Y0011182D03*
Y0011438D03*
Y0011694D03*
Y0011950D03*
X0019531D03*
Y0011694D03*
Y0011438D03*
Y0011182D03*
Y0010926D03*
Y0010670D03*
Y0010414D03*
Y0010158D03*
Y0009902D03*
Y0009646D03*
G54D29*
X0016831D03*
G54D30*
X0019966Y0021306D03*
G54D31*
X0020866Y0018406D03*
X0019066D03*
G54D32*
X0017928Y0013406D03*
G54D33*
X0017028Y0015846D03*
X0017928D03*
X0018828D03*
G54D34*
X0013882Y0015416D03*
G54D35*
X0014252Y0014626D03*
X0013512D03*
M02*
